<?xml version="1.0" encoding="utf-8"?>
<!-- Generator: Adobe Illustrator 22.0.1, SVG Export Plug-In . SVG Version: 6.00 Build 0)  -->
<svg version="1.1" id="Layer_1" xmlns="http://www.w3.org/2000/svg" xmlns:xlink="http://www.w3.org/1999/xlink" x="0px" y="0px"
	 viewBox="0 0 352 313.3" style="enable-background:new 0 0 352 313.3;" xml:space="preserve">
<style type="text/css">
	.st0{fill:#F5F6F6;}
	.st1{fill:#F6C2B3;}
	.st2{fill:#FCCFC3;}
	.st3{fill:#EC8585;}
	.st4{fill:#FFFFFF;}
	.st5{fill:#2B3548;}
	.st6{fill:#EAEAEA;}
	.st7{fill:#F9F9FA;}
	.st8{fill:#333333;}
	.st9{fill:#D9B880;}
</style>
<g>
	<path class="st0" d="M192.5,65.4C190,78.6,170.9,79,170.9,79s4.2,13.9-3.9,15c-8.1,1.1-11.7-2.2-11.7-2.2s-3,15.2-11.3,13.3
		c-1.4-0.3-4.3,0.6-8.1,2.4c-9.5,4.4-24.7,13.9-37.6,22.3c-12.9,8.4-23.5,15.8-23.5,15.8s2.4,10.9-5.8,12.4
		c-8.2,1.6-13.2-2.2-13.2-2.2s2.1,13.1-4.6,12.4c-0.7-0.1-1.4-0.2-1.9-0.4c1,4,0.7,8.9-4.7,12.8c-9.1,6.5-17.2-2.6-16.1-8.6
		c-8.2,4.7-19.3,8.2-23.1-4.9c-6-20.7,15.2-17.2,16.8-16.9c-1.6-0.6-28.2-10.3-18.6-19.5s19.2-10.2,19.7-10.3
		C22.6,120,1.7,108.2,11.2,89c9.6-19.5,13-33.7,5.9-37.1c-7.4-3.6-14.6,0.8-14.6,0.8s2.7-14.2,13.2-17.4c10.5-3.2,15.6-0.4,15.6-0.4
		S19.9,17.2,27.1,7.7c3.6-4.8,10.8-6,17.1-6.1l0,0c6-0.1,11.1,0.9,11.5,1C55,2.7,38,5.8,44.1,12.7c4.1,4.6,20.3-12.8,30.2-10.5
		c9,2.1,2.5,14.4,1.3,16.6c1.4-2.1,10.2-14.2,19.3-5c10,10.1,4.9,16.5,4.9,16.5s15.9-2.1,25.8,1.4c9.9,3.5,14.2,7.9,14.2,7.9
		s5.8-11.6,14.9-11.4c1.8,0,3.6,0.5,5.6,1.7c12.3,6.8,8.3,18,8.3,18S195,52.2,192.5,65.4z"/>
	<path class="st0" d="M192.5,65.4C190,78.6,170.9,79,170.9,79s4.2,13.9-3.9,15c-8.1,1.1-11.7-2.2-11.7-2.2s-3,15.2-11.3,13.3
		c-1.4-0.3-4.3,0.6-8.1,2.4c-9.5,4.4-24.7,13.9-37.6,22.3c-12.9,8.4-23.5,15.8-23.5,15.8s2.4,10.9-5.8,12.4
		c-8.2,1.6-13.2-2.2-13.2-2.2s2.1,13.1-4.6,12.4c-0.7-0.1-1.4-0.2-1.9-0.4c1,4,0.7,8.9-4.7,12.8c-9.1,6.5-17.2-2.6-16.1-8.6
		c-8.2,4.7-19.3,8.2-23.1-4.9c-6-20.7,15.2-17.2,16.8-16.9c-1.6-0.6-28.2-10.3-18.6-19.5s19.2-10.2,19.7-10.3
		C22.6,120,1.7,108.2,11.2,89c9.6-19.5,13-33.7,5.9-37.1c-7.4-3.6-14.6,0.8-14.6,0.8s2.7-14.2,13.2-17.4c10.5-3.2,15.6-0.4,15.6-0.4
		S19.9,17.2,27.1,7.7c3.6-4.8,10.8-6,17.1-6.1l0,0c6-0.1,11.1,0.9,11.5,1C55,2.7,38,5.8,44.1,12.7c4.1,4.6,20.3-12.8,30.2-10.5
		c9,2.1,2.5,14.4,1.3,16.6c1.4-2.1,10.2-14.2,19.3-5c10,10.1,4.9,16.5,4.9,16.5s15.9-2.1,25.8,1.4c9.9,3.5,14.2,7.9,14.2,7.9
		s5.8-11.6,14.9-11.4c1.8,0,3.6,0.5,5.6,1.7c12.3,6.8,8.3,18,8.3,18S195,52.2,192.5,65.4z"/>
	<g>
		<g>
			<g>
				<path class="st1" d="M128.1,249c0.3,0.8-0.6,45.6-0.6,45.6s43.2,16.7,75.7-2.3l-4.7-50.6L128.1,249z"/>
			</g>
		</g>
	</g>
	<path class="st0" d="M303.5,188.6c-3.5-3.9,2.7-12.7,4-15.6c4.7-10.5,2.8-48.5-14.4-47.2c4.6-3,6.5-3.3,7-9.9
		c0.4-4.6-0.4-9.8-4-12.6c4.1,7.3-1.1,13.7-9.4,11.7c-6.8-1.6-9-8.5-10-15c-2.2-15.1-0.2-49.8-22.9-48.4c-9.9,0.6-13.3,8-20.7,12.8
		c-1.7,1.1-4.1,4.1-6.6,2.5c-2.2-1.4-1.5-12.1-2.5-14.8c-4-10.4-13.7-16.2-24.2-15.2c-8.5,0.8-15,8.6-23.6,8
		c-3-8.9-17.2-19.5-25.7-21.2c-11.1-2.2-19,8.2-29.6,7.8c-12.3-0.5-22.3-7.9-34.1,2.9c-5.9,5.3-9.7,40.4-19.3,38.5
		c-1.8-7.3-12.9-7.2-16.7-1.8c16.3-3.1-9.5,36.2-2.8,7.6c-16.1,6.6-16.6,30.9-12.2,44.2c2.9,8.8,5.4,25-8.4,22.7
		c-0.7-3.6,1.4-6.6,1.2-9.5c-5.6,5.4-9.6,14.6-5.6,22.4c2.4,4.8,7.8,5.1,6.3,12.2c-1,4.6-6.4,6.6-8.2,11.3
		c-3.4,8.7-0.8,16.3,4.5,22.7c1.8,2.2,9.7,8,10.1,9.8c1.2,5.8-6.3,12.8-8.5,9.4c0.7,8,3.3,17.1,10.7,18.3c12.5,2,7.1-15.9,15.3-17.4
		c0.6,4.6-0.9,10.4,0.9,14.9c1.9,4.8,4.5,4,7.4,7.2c7.3,8.1-2.5,12.2-2.4,7.4c-0.9,5.9,6.3,10.4,10.9,12.3
		c5.2,2.2,12.7,1.7,17.2-2.4c4.4-4,3.4-13.1,8.1-15.5v-0.6c1,10.5,2.1,17.7,10.3,24.6c10.5,8.7,20.1,5.8,29.8-2.8
		c2,4.7,8.4,8.6,13.2,10.8c12.7,5.9,21.2-0.2,33.6-3.3c5.6-1.4,7.7-2.5,11.9-5.2c3.7-2.4,0.9-3.5,5.7-2.5c2.7,0.6,5.1,5.3,8.6,6.2
		c4.3,1.1,9.6-0.9,13.8-1.6c4.7-0.8,14.8-0.7,18.8-3.3c4.8-3.2,4-9.1,11-10.8c2.8-0.7,7.1-0.1,9.7,0.4c-2,1.9-5,1.6-7.6,0.8
		c6.1,10.4,18.1-4.1,19.7-10.8c2.2-9.1-6.1-42.6,12.6-39c0.4,3.4-2.1,5.5-5.1,6.2c12.6,9.4,11.7-16.4,13.1-22.6
		c5.3,1.7,17.6-0.3,17.7-7.7C309.9,189.4,305.8,191.2,303.5,188.6z"/>
	<g>
		<g>
			<g>
				<path class="st1" d="M92.9,196.5c0,0-15.9-5.6-19.7-2.2c-3.8,3.4,1.8,42.9,5.9,48.3c4,5.4,21.2,4.1,21.2,4.1
					S101.6,228.1,92.9,196.5z"/>
			</g>
		</g>
	</g>
	<g>
		<g>
			<g>
				<path class="st2" d="M94.7,147.6c-6.3,28.3,4.7,110,7.3,115.6c3,6.6,33.1,48.3,46.1,48.2c8.6-0.1,16.1,0.2,24.6,0.1
					c11.5-0.1,55.8-42,57.5-46.9c1.9-5.4,18.8-86.2,10.2-111.8c-4.6-13.8-22.2-40.8-36.2-46.5c-18.8-7.6-64.5-8.9-81.7,1.6
					C112,114.3,97.3,135.9,94.7,147.6z"/>
			</g>
		</g>
	</g>
	<g>
		<g>
			<g>
				<g>
					<path class="st3" d="M143,261c9,7.8,16.8-0.4,17.1-0.7l4.8,4.5c-4.3,4.6-15.3,10.7-26.3,1.2L143,261z"/>
				</g>
			</g>
		</g>
	</g>
	<g>
		<g>
			<g>
				<g>
					<path class="st4" d="M179.5,179.7l2.4,14.8c0,0,21.8-6.4,43.5,0.3l0.1-12.3C225.5,182.5,207.3,171.7,179.5,179.7z"/>
				</g>
			</g>
		</g>
		<g>
			<g>
				<g>
					<path class="st4" d="M93,186.2l0.9,12.3c21.2-8.1,43.4-3,43.4-3l1.5-14.9C110.5,174.3,93,186.2,93,186.2z"/>
				</g>
			</g>
		</g>
	</g>
	<g>
		<g>
			<g>
				<path class="st1" d="M240.8,194.7c0,0,11.4-7.3,14.3-4.4c2.9,3,0.3,42.8-2.4,48.6c-2.7,5.8-18.5,6.1-18.5,6.1
					S235.6,227,240.8,194.7z"/>
			</g>
		</g>
	</g>
	<g>
		<g>
			<g>
				<g>
					<path class="st5" d="M190.9,211.4c-8.1-8.6-16.8-1.3-17.1-1l-4.3-5c4.7-4.1,16.3-9.1,26.3,1.5L190.9,211.4z"/>
				</g>
			</g>
		</g>
	</g>
	<g>
		<g>
			<g>
				<path class="st1" d="M151.9,214.8c-5,0.4-16,17.2-16,22.2s13.5,13.5,16,13.2s14.3-10.8,14.3-13.3
					C166.2,234.3,154.7,214.5,151.9,214.8z"/>
			</g>
		</g>
	</g>
	<g>
		<g>
			<g>
				<rect x="178.8" y="205.9" class="st5" width="8.1" height="6.2"/>
			</g>
		</g>
	</g>
	<g>
		<g>
			<g>
				<g>
					<path class="st5" d="M127.8,211.4c-8.1-8.6-16.8-1.3-17.1-1l-4.3-5c4.7-4.1,16.3-9.1,26.3,1.5L127.8,211.4z"/>
				</g>
			</g>
		</g>
	</g>
	<g>
		<g>
			<g>
				<rect x="115.7" y="205.9" class="st5" width="8" height="6.2"/>
			</g>
		</g>
	</g>
	<g>
		<path class="st6" d="M229.4,130.2c-0.2-0.8-0.4-1.5-0.6-2.2c0,0.6,0.1,1.1,0,1.7L229.4,130.2z"/>
		<path class="st7" d="M205.9,100.3c-5.2-3.7-8.7-8.3-14.7-9.9c-10.9-3-24.1-2.8-31.1,6c-0.6-7.3-2.2-8-9.3-8
			c-3.2,0-6.4-0.6-8.6,1.2c-3.6,2.8-1.9,5-6.3,6.5c-3.5,1.2-9.3-0.2-13.1,0C107.1,97,106.3,106,97,115c-7.9,7.7-15.4,11.2-16.9,22.4
			c-7.3-0.4-13.2,13.4-14.5,18.7c-1.9,7.6,1.5,16.7,5.7,23.3c1.3,2.1,19.7,15.7,5.8,15.9c-0.1-0.1,1.6,1.4,1.5,1.3
			c14.3,1.7,19.1-5.8,15.9-18.1c-1.3-5-3.9-8-6.3-12.4c-2.2-4-2.9-14-5.1-15.9c2.7-8,7.4-12.4,16.7-13.3c7.5-0.7,13-1.1,20.2-3
			c-0.2-1.2,0.5-3,0.3-4.1c5.3,5.2,11.2,9.8,20.1,9.2c9.4-0.7,19.6-3,27.7-7.2c-4.2-0.6-12-4.9-11.4-9.5c8.8,7.9,20.9,11.7,33.2,8.7
			c10.3-2.5,33.4-20.3,39-2.9C228.2,115.2,215.9,107.3,205.9,100.3z"/>
	</g>
	<g>
		<path class="st6" d="M137.1,241.7L137.1,241.7c0.1,0,0.3,0,0.4,0H137.1z"/>
		<path class="st6" d="M208.8,234c-2.7-1.2-6.6,1.9-9.2,2.5c-2.4,0.5-5.2,0.3-7.6,0.4c-3.1,0.1-7.3-0.8-10.1,0.8
			c-1.7,0.9-1.9,2.7-3.2,3.6c-1.5,1-3.8,0.7-5,1.5c-0.6,0.4-0.9,2.4-1.6,3c-2.9,2.7-5.2,2.3-9.1,3.3c-4.4,1.1-14.5,4.3-15-4.3
			c0-0.1-6.3,0.9-7,0.7c-2.2-0.7-3.2-2.8-5.1-4.1c-5.1-3.3-11-1.3-16.5-0.4c-5.2,0.8-9.4,1.2-14.8,0.2c-2.9-0.5-7.7-4-10.1-3
			c-0.1,2.9-0.7,6.6,1,9.2c0.6,0.9,2.7,1.4,3,2.1c1.2,2.4-0.3,1.4-0.1,3.1c0.3,2.2-0.6,4,2.1,6.2c3.6,2.9,7.9,0.8,12.2,1
			c-2.2,5.2-2.7,7.1,3.4,8.1c3.8,0.6,7.5-0.3,11.2-0.5c0.3,3.1,0.4,5.2,3.9,5.6c3.3,0.4,4.4-3.3,7.2-3.2c2.3,0.1,1.7,2.1,3.8,2.8
			c5.4,1.8,8.4-3.9,12.6-5.9c3.6,6.5,10.6,3.3,13.7-1.4c0.6,1.3,1.4,3.7,2.8,4.5c4.4,2.6,6.9-2.6,10.1-3.7c6.4-2.2,9.8,1.4,15-4.6
			c1.6,0.6,5.1,1.9,6.8,1c1.8-0.9,1.8-3.3,2.7-5.2c0.1-0.2,0.2-0.3,0.2-0.5c1.8-3.2,3.4-3.2,4.3-7.7
			C211.1,245.5,213,235.7,208.8,234z"/>
	</g>
	<g>
		<path class="st8" d="M136.8,211.5C136.9,211.5,136.9,211.6,136.8,211.5C136.9,211.6,136.9,211.5,136.8,211.5z"/>
		<path class="st8" d="M136.8,211.4C136.8,211.4,136.8,211.5,136.8,211.4C136.8,211.5,136.8,211.4,136.8,211.4z"/>
		<path class="st8" d="M136.9,211.6c0.1,0.2,0.2,0.4,0.2,0.4S137,211.8,136.9,211.6z"/>
		<path class="st8" d="M136.8,211.4c-1.2-1.9-6.4-8.4-18.7-8.2c-10.8,0.1-22.6,7.6-22.6,7.6s6.2-3.1,17.4-4.1
			c-1.3,1.3-2.2,3.2-2.2,5.3c0,4.1,3.3,7.4,7.4,7.4c4.1,0,7.4-3.3,7.4-7.4c0-2.1-0.9-4-2.3-5.4C132.6,207.3,135.8,210.2,136.8,211.4
			z"/>
	</g>
	<g>
		<path class="st8" d="M203.4,211.5C203.4,211.5,203.4,211.6,203.4,211.5C203.4,211.6,203.4,211.5,203.4,211.5z"/>
		<path class="st8" d="M203.3,211.4C203.3,211.4,203.3,211.5,203.3,211.4C203.3,211.5,203.3,211.4,203.3,211.4z"/>
		<path class="st8" d="M203.4,211.6c0.1,0.2,0.2,0.4,0.2,0.4S203.6,211.8,203.4,211.6z"/>
		<path class="st8" d="M203.3,211.4c-1.2-1.9-6.4-8.4-18.7-8.3c-10.8,0.1-22.6,7.6-22.6,7.6s6.1-3.1,17.2-4
			c-1.3,1.3-2.2,3.2-2.2,5.3c0,4.1,3.3,7.4,7.4,7.4c4.1,0,7.4-3.3,7.4-7.4c0-2.1-0.9-4-2.3-5.4C199.1,207.2,202.4,210.2,203.3,211.4
			z"/>
	</g>
	<path class="st9" d="M175.9,234.8c-0.5-1.9-1.8-3.6-3.6-4.4l-2.8-1.4c-1.3-3-11.7-27.7-12.8-37.1c-2.5-12.9-0.9,1.3-1.5,1.9
		c2.1,11.3,12.3,35.1,12.8,36.3l0.1,0.3l3.4,1.7c1.3,0.7,2.2,1.9,2.6,3.3c0.4,1.5,0.2,3.1-0.6,4.5c-0.6,1-1.4,1.5-2.5,1.5
		s-2.1-0.6-2.1-0.6l-2.2-3.6l0.9,4.6c0,0,0.3,1.6-0.9,3.2s-4,3.6-11,4.1c-0.8,0.1-1.6,0.1-2.3,0.1c-3.7,0-6.2-0.8-6.9-2.1
		c-0.7-1.3,0.4-9.4,0.4-9.5l-1.6,5.3c0,0-1.3,1.9-6.5,1.7c-0.5,0-0.9-0.2-1.2-0.7c-1-1.5-0.5-5.1,0.2-6.9c1.2-3.2,2.4-3.7,3.5-4.1
		c1.5-0.6,2.6-1.2,2.9-4.1c0.6-4.5-0.7-34.5-0.9-42.4c-0.7-0.5-0.3,7.3-0.9,6.7c0.1,5.6,0.6,30.8,0,35.4c-0.3,2-0.8,2.2-1.8,2.6
		c-1.3,0.5-3.1,1.2-4.5,5.2c-0.7,1.8-1.5,6.2,0,8.6c0.6,0.9,1.5,1.5,2.7,1.5c2.6,0.1,4.4-0.3,5.7-0.8c0,0.7,0.1,1.5,0.5,2.3
		c1.1,2,4,3.1,8.5,3.1c0.7,0,1.5,0,2.4-0.1c6.2-0.4,10.3-2,12.4-4.8c0.8-1.2,1.1-2.3,1.2-3.2c0.5,0.1,1,0.2,1.6,0.2
		c1.7,0,3.1-0.8,4-2.4C176.1,238.9,176.4,236.8,175.9,234.8z"/>
	<g>
		<g>
			<g>
				<g>
					<path class="st5" d="M187.9,238.1c-13.9,0-25.2-11.9-25.2-26.5s11.3-26.5,25.2-26.5s25.2,11.9,25.2,26.5
						C213.1,226.2,201.8,238.1,187.9,238.1z M187.9,188.4c-12.5,0-22.6,10.4-22.6,23.2c0,12.8,10.1,23.2,22.6,23.2
						s22.6-10.4,22.6-23.2S200.4,188.4,187.9,188.4z"/>
				</g>
			</g>
		</g>
		<g>
			<g>
				<g>
					<path class="st5" d="M117.2,238.1c-13.9,0-25.2-11.9-25.2-26.5s11.3-26.5,25.2-26.5s25.2,11.9,25.2,26.5
						S131.1,238.1,117.2,238.1z M117.2,188.4c-12.5,0-22.6,10.4-22.6,23.2c0,12.8,10.1,23.2,22.6,23.2s22.6-10.4,22.6-23.2
						S129.7,188.4,117.2,188.4z"/>
				</g>
			</g>
		</g>
		<g>
			<g>
				<g>
					<path class="st5" d="M164.7,203.5c-6.4-6.7-17.2-5.7-23.7,0.4c-1.8,1.7,0,5.5,1.8,3.8c5.1-4.8,14.2-6.5,19.4-1.1
						C163.9,208.4,166.4,205.4,164.7,203.5z"/>
				</g>
			</g>
		</g>
	</g>
	<path class="st0" d="M293.5,215.6c-13.3-1.8-14.7-20.9-14.7-20.9s-13.7,4.9-15.2-3.1c-1.6-8,1.6-11.8,1.6-11.8s-15.3-2.2-13.9-10.6
		c0.2-1.4-0.8-4.2-2.8-8c-4.9-9.2-15.2-24-24.2-36.4c-9.1-12.5-17-22.7-17-22.7s-10.7,3-12.7-5.1s1.6-13.3,1.6-13.3
		s-12.9,2.7-12.6-4c0-0.7,0.1-1.4,0.3-1.9c-3.9,1.2-8.9,1.2-13-4c-6.9-8.7,1.7-17.3,7.8-16.6c-5.1-7.9-9.1-18.9,3.7-23.3
		c20.4-7,18,14.3,17.8,15.9c0.5-1.7,8.9-28.7,18.5-19.6c9.7,9.1,11.2,18.7,11.3,19.1c0.4-0.7,11.1-22.2,30.7-13.7
		c20,8.6,34.3,11.3,37.4,4s-1.6-14.3-1.6-14.3s14.3,2,18,12.3c3.8,10.3,1.2,15.6,1.2,15.6s17.1-12.3,26.9-5.7
		c4.9,3.3,6.6,10.5,7,16.7l0,0c0.4,6-0.3,11.2-0.4,11.6c-0.2-0.7-4.2-17.6-10.7-11.1c-4.3,4.3,13.8,19.6,12.1,29.6
		c-1.6,9.1-14.3,3.3-16.5,2.1c2.2,1.3,14.7,9.4,6,19c-9.6,10.5-16.2,5.8-16.2,5.8s2.9,15.8-0.1,25.9c-3,10.1-7.1,14.6-7.1,14.6
		s11.9,5.2,12.1,14.3c0,1.8-0.4,3.7-1.4,5.7c-6.2,12.6-17.5,9.2-17.5,9.2S306.8,217.4,293.5,215.6z"/>
</g>
</svg>
