<?xml version="1.0" encoding="UTF-8"?>
<svg width="28px" height="28px" viewBox="0 0 28 28" version="1.1" xmlns="http://www.w3.org/2000/svg" xmlns:xlink="http://www.w3.org/1999/xlink">
    <!-- Generator: Sketch 49.3 (51167) - http://www.bohemiancoding.com/sketch -->
    <title>Icons/Checkmark-square</title>
    <desc>Created with Sketch.</desc>
    <defs>
        <path d="M13.0909091,14.5272078 L22.4480847,5.2636039 C22.8031068,4.91213203 23.3787114,4.91213203 23.7337334,5.2636039 C24.0887555,5.61507576 24.0887555,6.18492424 23.7337334,6.5363961 L13.7337334,16.4363961 C13.3787114,16.787868 12.8031068,16.787868 12.4480847,16.4363961 L9.72081202,13.7363961 C9.36578993,13.3849242 9.36578993,12.8150758 9.72081202,12.4636039 C10.0758341,12.112132 10.6514386,12.112132 11.0064607,12.4636039 L13.0909091,14.5272078 Z M20.3636364,14 C20.3636364,13.5029437 20.7706502,13.1 21.2727273,13.1 C21.7748043,13.1 22.1818182,13.5029437 22.1818182,14 L22.1818182,20.3 C22.1818182,21.7911688 20.9607766,23 19.4545455,23 L6.72727273,23 C5.22104159,23 4,21.7911688 4,20.3 L4,7.7 C4,6.20883118 5.22104159,5 6.72727273,5 L16.7272727,5 C17.2293498,5 17.6363636,5.40294373 17.6363636,5.9 C17.6363636,6.39705627 17.2293498,6.8 16.7272727,6.8 L6.72727273,6.8 C6.22519568,6.8 5.81818182,7.20294373 5.81818182,7.7 L5.81818182,20.3 C5.81818182,20.7970563 6.22519568,21.2 6.72727273,21.2 L19.4545455,21.2 C19.9566225,21.2 20.3636364,20.7970563 20.3636364,20.3 L20.3636364,14 Z" id="path-1"></path>
    </defs>
    <g id="Icons/Checkmark-square" stroke="none" stroke-width="1" fill="none" fill-rule="evenodd">
        <mask id="mask-2" fill="white">
            <use xlink:href="#path-1"></use>
        </mask>
        <use id="Combined-Shape" fill="#FFFFFF" fill-rule="nonzero" xlink:href="#path-1"></use>
        <g id="Colors/White" mask="url(#mask-2)" fill="#FFFFFF">
            <rect id="Rectangle-3-Copy" x="0" y="0" width="28" height="28"></rect>
        </g>
    </g>
</svg>