<?xml version="1.0" encoding="UTF-8"?>
<svg width="28px" height="28px" viewBox="0 0 28 28" version="1.1" xmlns="http://www.w3.org/2000/svg" xmlns:xlink="http://www.w3.org/1999/xlink">
    <!-- Generator: Sketch 49.3 (51167) - http://www.bohemiancoding.com/sketch -->
    <title>Artboard</title>
    <desc>Created with Sketch.</desc>
    <defs>
        <path d="M5.5,19 L22.5,19 C23.3284271,19 24,19.6715729 24,20.5 C24,21.3284271 23.3284271,22 22.5,22 L5.5,22 C4.67157288,22 4,21.3284271 4,20.5 C4,19.6715729 4.67157288,19 5.5,19 Z M5.5,13 L22.5,13 C23.3284271,13 24,13.6715729 24,14.5 C24,15.3284271 23.3284271,16 22.5,16 L5.5,16 C4.67157288,16 4,15.3284271 4,14.5 C4,13.6715729 4.67157288,13 5.5,13 Z M5.5,7 L22.5,7 C23.3284271,7 24,7.67157288 24,8.5 C24,9.32842712 23.3284271,10 22.5,10 L5.5,10 C4.67157288,10 4,9.32842712 4,8.5 C4,7.67157288 4.67157288,7 5.5,7 Z" id="path-1"></path>
    </defs>
    <g id="Artboard" stroke="none" stroke-width="1" fill="none" fill-rule="evenodd">
        <mask id="mask-2" fill="white">
            <use xlink:href="#path-1"></use>
        </mask>
        <use id="Mask" fill="#FFFFFF" xlink:href="#path-1"></use>
    </g>
</svg>