<?xml version="1.0" encoding="UTF-8"?>
<svg width="158px" height="50px" viewBox="0 0 158 50" version="1.1" xmlns="http://www.w3.org/2000/svg" xmlns:xlink="http://www.w3.org/1999/xlink">
    <!-- Generator: Sketch 49.3 (51167) - http://www.bohemiancoding.com/sketch -->
    <title>Logo/Core Original</title>
    <desc>Created with Sketch.</desc>
    <defs>
        <polygon id="path-1" points="0.0285542169 0.336941176 157.958596 0.336941176 157.958596 32 0.0285542169 32"></polygon>
    </defs>
    <g id="Logo/Core-Original" stroke="none" stroke-width="1" fill="none" fill-rule="evenodd">
        <g id="Launch_Screen" transform="translate(0.000000, 7.000000)">
            <g id="Group-4">
                <mask id="mask-2" fill="white">
                    <use xlink:href="#path-1"></use>
                </mask>
                <g id="Clip-2"></g>
                <path d="M92.6141747,11.5124706 L42.0175301,11.5124706 C41.203259,11.5124706 40.522241,10.7322353 40.3437771,10.5218824 L37.4931145,6.52752941 C36.9591506,5.81129412 35.8850361,4.672 34.5372771,4.80423529 C33.4779157,4.90917647 32.7026687,5.76 32.1706084,7.40423529 L25.4384759,27.2870588 C17.5441867,2.42823529 17.2134337,1.49882353 16.9450241,1.17552941 C16.1079096,0.162823529 14.6483133,0.0555294118 13.4666446,0.917176471 C13.2515361,1.06776471 11.2746325,2.45411765 10.1124759,3.30588235 C8.96887952,4.14352941 7.89095783,5.136 6.37710843,5.62447059 C5.26016265,5.98494118 3.2528012,6.304 1.29731325,6.304 L1.2506747,6.30729412 C0.686728916,6.30729412 0.137060241,6.78305882 0.0214156627,7.37176471 C-0.0942289157,7.96141176 0.268885542,8.43764706 0.832831325,8.43764706 L0.882801205,8.44094118 C1.98071084,8.44094118 5.9506988,8.63670588 7.46359639,8.19482353 C8.91081928,7.77176471 10.4903434,7.31576471 12.180753,6.06635294 C12.847494,5.57317647 13.8245241,4.88376471 14.5426627,4.37647059 C15.9813193,8.55811765 20.031259,21.7171765 22.6296928,29.9096471 L22.7058373,30.1054118 C23.151759,31.0781176 24.1759036,32 25.5065301,32 C25.6021867,32 25.6987952,31.9948235 25.7958795,31.9849412 C27.1674337,31.8494118 27.9750422,30.7021176 28.2615361,29.7327059 L35.2159157,9.21223529 L37.9380843,12.5882353 C38.0884699,12.776 39.4709699,14.4197647 41.5249699,14.4197647 L92.6141747,14.4197647 L92.6141747,11.5124706" id="Fill-1" fill="#0093CC" mask="url(#mask-2)"></path>
                <path d="M143.641512,18.8752941 L150.44741,18.8875294 C151.928422,18.8903529 152.983024,19.2974118 153.584566,20.096 C154.189916,20.9054118 154.254639,22.0122353 153.775404,23.3854118 C153.311873,24.7162353 152.479042,25.8216471 151.294518,26.6668235 C150.126175,27.504 148.844566,27.928 147.477295,27.928 L140.494361,27.9157647 L143.641512,18.8752941 Z M156.934452,17.9802353 C155.774199,16.5407059 153.783494,15.8084706 151.014211,15.8037647 L141.138259,15.7863529 L135.863819,30.9331765 L146.514066,30.9524706 L146.53453,30.9524706 C148.850277,30.9524706 151.032295,30.3477647 153.053934,29.0404706 C155.230241,27.6334118 156.708873,25.8404706 157.448428,23.7101176 C158.271265,21.3496471 158.098512,19.4216471 156.934452,17.9802353 Z" id="Fill-3" fill="#213975" mask="url(#mask-2)"></path>
            </g>
            <polyline id="Fill-5" fill="#213975" points="35.9097831 15.6230588 30.5715723 30.9331765 34.1489398 30.9402353 39.4876265 15.6287059 35.9097831 15.6230588"></polyline>
            <polyline id="Fill-6" fill="#213975" points="55.2533614 18.7416471 58.0093193 15.6630588 40.5774458 15.6296471 39.5038072 18.7124706 45.2512952 18.7247059 41.0090904 30.9322353 44.5859819 30.9383529 48.8291386 18.7308235 55.2533614 18.7416471"></polyline>
            <path d="M61.4415361,24.6089412 L55.5027349,24.5990588 L60.3483855,19.2672941 L61.4415361,24.6089412 Z M63.3889337,15.7261176 L59.5488675,15.6654118 L45.7143494,30.9261176 L49.7723795,30.9331765 L52.6910964,27.6785882 L58.8388193,27.6898824 L61.4639036,24.7162353 L62.745988,30.9242353 L66.5470301,30.9312941 L63.3889337,15.7261176 Z" id="Fill-7" fill="#213975"></path>
            <path d="M112.642102,24.6771765 L106.701873,24.6672941 L111.549428,19.3355294 L112.642102,24.6771765 Z M114.551904,15.7402353 L110.748958,15.7336471 L96.992488,30.9364706 L101.053849,30.9312941 L103.892139,27.7468235 L110.09459,27.7571765 L112.679223,24.7967059 L113.916096,30.9341176 L117.717139,30.9411765 L114.551904,15.7402353 Z" id="Fill-8" fill="#213975"></path>
            <polyline id="Fill-9" fill="#213975" points="136.23788 15.7783529 132.416373 26.7604706 125.486741 15.7595294 121.709494 15.7534118 116.425536 30.9331765 120.001 30.9392941 123.812512 19.9901176 130.7055 30.9218824 134.488934 30.9294118 139.815723 15.7844706 136.23788 15.7783529"></polyline>
            <polyline id="Fill-10" fill="#213975" points="70.3414096 28.1007059 74.5683855 15.7294118 70.9657952 15.7082353 65.7646446 30.928 76.412512 30.9364706 77.4090542 28.0945882 70.3414096 28.1007059"></polyline>
            <path d="M97.1814217,24.2875294 C96.360488,26.7632941 94.8775723,27.9670588 92.6446325,27.9670588 L81.9439398,27.9124706 L84.3938916,20.4837647 L95.7694157,20.5407059 C96.5760723,20.5449412 97.120506,20.7745882 97.3827289,21.224 C97.7296627,21.8145882 97.6606566,22.8451765 97.1814217,24.2875294 M99.9159639,14.1134118 C99.1278675,16.5882353 97.703488,17.7915294 95.5600181,17.7915294 L85.300012,17.7383529 L87.7504398,10.3091765 L98.5591627,10.3665882 C99.3348855,10.3703529 99.8569518,10.6004706 100.108705,11.0494118 C100.44041,11.64 100.375211,12.6705882 99.9159639,14.1134118 M103.245861,14.1270588 C103.897849,12.1345882 103.885952,10.4969412 103.207313,9.26258824 C102.508211,7.99482353 101.198048,7.34776471 99.3087108,7.33788235 L85.092994,7.26776471 L77.3443313,30.9313442 L91.6514217,30.9312941 C96.1553735,30.9430588 99.1321506,28.8828235 100.490855,24.7251765 C101.41744,21.8978824 101.179488,19.9148235 99.7860422,18.8192941 C101.441711,17.6658824 102.603867,16.0908235 103.245861,14.1270588" id="Fill-11" fill="#213975"></path>
            <path d="M102.226,14.568 C101.742482,13.5887059 100.927735,13.0682353 100.230536,12.8677647 C100.16391,13.2423529 100.062542,13.6541176 99.9159639,14.1134118 C99.7165602,14.7369412 99.4790843,15.2795294 99.1963976,15.7425882 C99.426259,16.2287059 99.9283373,17.3355294 100.391392,18.3590588 C101.346054,17.5736471 102.110355,16.6235294 102.67097,15.5195294 C102.471566,15.0847059 102.305476,14.728 102.226,14.568" id="Fill-12" fill="#0F1F48"></path>
            <path d="M151.231699,11.424 L151.211235,11.4249412 L112.13003,11.4249412 C109.934211,11.4202353 109.661994,11.4498824 109.570145,11.4602353 C109.164199,11.5054118 108.085325,11.7407059 106.925548,12.9562353 L104.306651,15.8762353 C103.851211,14.8705882 103.296783,13.6522353 103.130217,13.3124706 C102.528675,12.0969412 101.419343,11.5868235 100.655518,11.5195294 L100.578422,11.5124706 L91.1008012,11.5124706 L91.1008012,14.4197647 L100.070157,14.4197647 C100.354747,15.0202353 101.216608,16.9247059 101.764849,18.1482353 C102.037066,18.7637647 102.674777,19.8056471 103.869771,19.8625882 C104.609325,19.8950588 105.27559,19.5214118 105.961843,18.6795294 L109.470681,14.7670588 C109.737187,14.4927059 109.931831,14.3830588 110.013211,14.3449412 C110.35491,14.3350588 111.317663,14.3303529 112.126223,14.3312941 L150.47406,14.3312941 L150.502139,14.3317647 C151.312602,14.3317647 152.134012,13.6814118 152.337223,12.8785882 C152.538054,12.0752941 152.044066,11.424 151.231699,11.424" id="Fill-13" fill="#0093CC"></path>
            <path d="M157.229036,13.9967059 L157.157651,12.8677647 C157.150036,12.7190588 157.150036,12.5350588 157.143849,12.3303529 L157.123386,12.3303529 C157.07056,12.5002353 157.007741,12.7256471 156.957295,12.9025882 L156.607506,13.9684706 L156.209175,13.9684706 L155.857482,12.8743529 C155.823217,12.7331765 155.766584,12.5002353 155.721849,12.3303529 L155.701386,12.3303529 C155.701386,12.5068235 155.692819,12.6908235 155.687108,12.8677647 L155.615723,13.9967059 L155.242139,13.9967059 L155.388717,12.0771765 L155.965512,12.0771765 L156.301024,13.0150588 C156.35147,13.1637647 156.380024,13.3044706 156.428566,13.5025882 L156.436657,13.5025882 C156.485199,13.3336471 156.53041,13.1637647 156.570861,13.0301176 L156.908277,12.0771765 L157.464608,12.0771765 L157.614994,13.9967059 L157.229036,13.9967059 Z M155.128398,12.0771765 L155.128398,12.3943529 L154.508771,12.3943529 L154.508771,13.9967059 L154.122813,13.9967059 L154.122813,12.3943529 L153.50747,12.3943529 L153.50747,12.0771765 L155.128398,12.0771765 Z" id="Fill-14" fill="#0093CC"></path>
        </g>
    </g>
</svg>